<?xml version="1.0" encoding="UTF-8"?>
<!DOCTYPE svg PUBLIC "-//W3C//DTD SVG 1.1//EN" "http://www.w3.org/Graphics/SVG/1.1/DTD/svg11.dtd">
<svg xmlns="http://www.w3.org/2000/svg" version="1.1" width="3240px" height="4860px" style="shape-rendering:geometricPrecision; text-rendering:geometricPrecision; image-rendering:optimizeQuality; fill-rule:evenodd; clip-rule:evenodd" xmlns:xlink="http://www.w3.org/1999/xlink">
<g><path style="opacity:1" fill="#080808" d="M -0.5,-0.5 C 256.5,-0.5 513.5,-0.5 770.5,-0.5C 542.063,14.6413 351.563,106.975 199,276.5C 77.4725,418.507 10.9725,583.174 -0.5,770.5C -0.5,513.5 -0.5,256.5 -0.5,-0.5 Z"/></g>
<g><path style="opacity:1" fill="#f0f1f4" d="M 770.5,-0.5 C 790.167,-0.5 809.833,-0.5 829.5,-0.5C 1034.44,7.50261 1212.44,80.3359 1363.5,218C 1520.02,368.567 1605.18,552.734 1619,770.5C 1625.41,977.921 1564.41,1162.25 1436,1323.5C 1300.76,1483.9 1128.93,1580.06 920.5,1612C 692.368,1639.81 487.701,1584.15 306.5,1445C 132.272,1302.54 31.4385,1119.04 4,894.5C 2.20405,872.695 0.704053,851.028 -0.5,829.5C -0.5,809.833 -0.5,790.167 -0.5,770.5C 10.9725,583.174 77.4725,418.507 199,276.5C 351.563,106.975 542.063,14.6413 770.5,-0.5 Z"/></g>
<g><path style="opacity:1" fill="#080808" d="M 829.5,-0.5 C 1632.83,-0.5 2436.17,-0.5 3239.5,-0.5C 3239.5,1133.5 3239.5,2267.5 3239.5,3401.5C 2885.19,3755.15 2531.19,4109.15 2177.5,4463.5C 2205.08,4487.58 2233.42,4510.75 2262.5,4533C 2264.05,4534.29 2265.72,4534.96 2267.5,4535C 2591.37,4210.97 2915.37,3887.13 3239.5,3563.5C 3239.5,3617.5 3239.5,3671.5 3239.5,3725.5C 2947.03,4017.47 2654.7,4309.63 2362.5,4602C 2395.37,4624.09 2429.37,4644.09 2464.5,4662C 2722.7,4403.63 2981.03,4145.47 3239.5,3887.5C 3239.5,3941.5 3239.5,3995.5 3239.5,4049.5C 3017.03,4271.47 2794.7,4493.63 2572.5,4716C 2608.83,4733.11 2645.83,4748.44 2683.5,4762C 2685.17,4762.67 2686.83,4762.67 2688.5,4762C 2872.03,4578.3 3055.7,4394.8 3239.5,4211.5C 3239.5,4265.5 3239.5,4319.5 3239.5,4373.5C 3096.37,4516.13 2953.37,4658.97 2810.5,4802C 2853.97,4814.53 2897.97,4824.53 2942.5,4832C 3041.37,4732.97 3140.37,4634.13 3239.5,4535.5C 3239.5,4589.5 3239.5,4643.5 3239.5,4697.5C 3187.7,4748.8 3136.03,4800.3 3084.5,4852C 3098.45,4853.73 3112.45,4855.06 3126.5,4856C 3150.66,4857.21 3174.66,4858.38 3198.5,4859.5C 2672.17,4859.5 2145.83,4859.5 1619.5,4859.5C 1619.67,4319.5 1619.5,3779.5 1619,3239.5C 1079.3,3779.37 539.465,4319.03 -0.5,4858.5C -0.5,3515.5 -0.5,2172.5 -0.5,829.5C 0.704053,851.028 2.20405,872.695 4,894.5C 31.4385,1119.04 132.272,1302.54 306.5,1445C 487.701,1584.15 692.368,1639.81 920.5,1612C 1128.93,1580.06 1300.76,1483.9 1436,1323.5C 1564.41,1162.25 1625.41,977.921 1619,770.5C 1605.18,552.734 1520.02,368.567 1363.5,218C 1212.44,80.3359 1034.44,7.50261 829.5,-0.5 Z"/></g>
<g><path style="opacity:1" fill="#f0f1f4" d="M 1780.5,3239.5 C 1834.5,3239.33 1888.5,3239.5 1942.5,3240C 1844,3338.5 1745.5,3437 1647,3535.5C 1637.18,3488.31 1630.85,3440.64 1628,3392.5C 1679.03,3341.63 1729.87,3290.63 1780.5,3239.5 Z"/></g>
<g><path style="opacity:1" fill="#f0f1f4" d="M 2104.5,3239.5 C 2158.5,3239.33 2212.5,3239.5 2266.5,3240C 2083,3423.5 1899.5,3607 1716,3790.5C 1700.73,3750.11 1687.73,3709.11 1677,3667.5C 1819.7,3524.97 1962.2,3382.3 2104.5,3239.5 Z"/></g>
<g><path style="opacity:1" fill="#f0f1f4" d="M 2428.5,3239.5 C 2482.5,3239.33 2536.5,3239.5 2590.5,3240C 2332.33,3498.17 2074.17,3756.33 1816,4014.5C 1797.24,3978.81 1779.41,3942.64 1762.5,3906C 1984.7,3683.97 2206.7,3461.8 2428.5,3239.5 Z"/></g>
<g><path style="opacity:1" fill="#f0f1f4" d="M 2752.5,3239.5 C 2806.5,3239.33 2860.5,3239.5 2914.5,3240C 2590.67,3563.83 2266.83,3887.67 1943,4211.5C 1919.66,4180.49 1897.5,4148.66 1876.5,4116C 2168.7,3823.97 2460.7,3531.8 2752.5,3239.5 Z"/></g>
<g><path style="opacity:1" fill="#f0f1f4" d="M 3076.5,3239.5 C 3130.5,3239.33 3184.5,3239.5 3238.5,3240C 2856.67,3621.83 2474.83,4003.67 2093,4385.5C 2066.6,4358.43 2040.93,4330.77 2016,4302.5C 2015.33,4301.83 2015.33,4301.17 2016,4300.5C 2369.7,3946.97 2723.2,3593.3 3076.5,3239.5 Z"/></g>
<g><path style="opacity:1" fill="#f0f1f4" d="M 1619.5,4859.5 C 1079.5,4859.5 539.5,4859.5 -0.5,4859.5C -0.5,4859.17 -0.5,4858.83 -0.5,4858.5C 539.465,4319.03 1079.3,3779.37 1619,3239.5C 1619.5,3779.5 1619.67,4319.5 1619.5,4859.5 Z"/></g>
<g><path style="opacity:1" fill="#f0f1f4" d="M 3239.5,3401.5 C 3239.5,3455.5 3239.5,3509.5 3239.5,3563.5C 2915.37,3887.13 2591.37,4210.97 2267.5,4535C 2265.72,4534.96 2264.05,4534.29 2262.5,4533C 2233.42,4510.75 2205.08,4487.58 2177.5,4463.5C 2531.19,4109.15 2885.19,3755.15 3239.5,3401.5 Z"/></g>
<g><path style="opacity:1" fill="#f0f1f4" d="M 3239.5,3725.5 C 3239.5,3779.5 3239.5,3833.5 3239.5,3887.5C 2981.03,4145.47 2722.7,4403.63 2464.5,4662C 2429.37,4644.09 2395.37,4624.09 2362.5,4602C 2654.7,4309.63 2947.03,4017.47 3239.5,3725.5 Z"/></g>
<g><path style="opacity:1" fill="#f0f1f4" d="M 3239.5,4049.5 C 3239.5,4103.5 3239.5,4157.5 3239.5,4211.5C 3055.7,4394.8 2872.03,4578.3 2688.5,4762C 2686.83,4762.67 2685.17,4762.67 2683.5,4762C 2645.83,4748.44 2608.83,4733.11 2572.5,4716C 2794.7,4493.63 3017.03,4271.47 3239.5,4049.5 Z"/></g>
<g><path style="opacity:1" fill="#f0f1f4" d="M 3239.5,4373.5 C 3239.5,4427.5 3239.5,4481.5 3239.5,4535.5C 3140.37,4634.13 3041.37,4732.97 2942.5,4832C 2897.97,4824.53 2853.97,4814.53 2810.5,4802C 2953.37,4658.97 3096.37,4516.13 3239.5,4373.5 Z"/></g>
<g><path style="opacity:1" fill="#f0f1f4" d="M 3239.5,4697.5 C 3239.5,4751.5 3239.5,4805.5 3239.5,4859.5C 3225.83,4859.5 3212.17,4859.5 3198.5,4859.5C 3174.66,4858.38 3150.66,4857.21 3126.5,4856C 3112.45,4855.06 3098.45,4853.73 3084.5,4852C 3136.03,4800.3 3187.7,4748.8 3239.5,4697.5 Z"/></g>
</svg>
